# xmcd
#
# Track frame offsets: 
#        150
#        20841
#        42696
#        60421
#        82895
#        105686
#        118226
#        129553
#        149047
#        180861
#        208170
#        263156
#
# Disc length: 3864 seconds
#
# Revision: 3
# Processed by: cddbd v1.5.2PL0 Copyright (c) Steve Scherf et al.
# Submitted via: ExactAudioCopyFreeDBPlugin 1.0
#
DISCID=b20f160c
DTITLE=Julma-Henri and Syrjäytyneet - Psykoterapia
DYEAR=2010
DGENRE=Rap
TTITLE0=Alku
TTITLE1=Kipu
TTITLE2=Minä?
TTITLE3=Mistä?
TTITLE4=Miten?
TTITLE5=Ahdistus
TTITLE6=Masennus
TTITLE7=Itsetunto
TTITLE8=Toipuminen
TTITLE9=Tunteet I
TTITLE10=Tunteet II
TTITLE11=Minä
EXTD=
EXTT0=
EXTT1=
EXTT2=
EXTT3=
EXTT4=
EXTT5=
EXTT6=
EXTT7=
EXTT8=
EXTT9=
EXTT10=
EXTT11=
PLAYORDER=
